<?xml version="1.0" standalone="no"?><!DOCTYPE svg PUBLIC "-//W3C//DTD SVG 1.1//EN" "http://www.w3.org/Graphics/SVG/1.1/DTD/svg11.dtd"><svg class="icon" width="200px" height="200.00px" viewBox="0 0 1024 1024" version="1.1" xmlns="http://www.w3.org/2000/svg"><path d="M648.7296 155.3152h-273.4592c-77.51168 0-126.64832 0.30208-173.10208 46.7456-46.56128 46.56128-46.85312 95.93856-46.85312 173.2096v273.4592c0 77.5168 0.3072 126.65856 46.7456 173.10208 46.58688 46.58688 95.93856 46.85312 173.2096 46.85312h273.4592c77.5168 0 126.6432-0.29184 173.10208-46.7456 46.55104-46.55616 46.85312-95.94368 46.85312-173.2096v-273.4592c0-77.51168-0.30208-126.65344-46.7456-173.10208-46.57664-46.58176-95.94368-46.85312-173.2096-46.85312z" fill="#1CACEB" /><path d="M464.08192 359.7056V292.27008h72.80128v67.43552h148.5824v29.63456l-148.5824 1.01888v41.89696l122.68544 1.024s-2.2272 23.5008-17.77664 66.24256-30.12096 64.54272-30.12096 64.54272l238.0288 80.0256s-8.53504 22.90176-18.82624 42.96192c-10.29632 20.06528-24.60672 41.67168-24.60672 41.67168l-227.51232-110.49984s-43.02336 48.74752-86.90688 70.20544c-43.8784 21.45792-94.26944 34.81088-148.82304 21.62688-54.55872-13.184-93.29664-48.93184-86.6304-114.93888 6.66112-66.00192 75.52-88.76032 132.16768-88.76032 56.64256 0 164.11648 37.61152 164.11648 37.61152s9.03168-20.74112 17.80224-44.4416 11.26912-42.74176 11.26912-42.74176H352.88064v-23.5008H464.0768v-44.95872l-138.61888 1.024v-29.63456h138.624v-0.01024z" fill="#FFFFFF" /><path d="M525.28128 590.96064s-68.13696 82.944-148.40832 82.944c-80.27648 0-97.14176-39.3984-97.14176-67.7376s16.69632-59.136 84.99712-63.5904c68.30592-4.4544 160.55296 48.384 160.55296 48.384z" fill="#1CACEB" /></svg>