<?xml version="1.0" standalone="no"?><!DOCTYPE svg PUBLIC "-//W3C//DTD SVG 1.1//EN" "http://www.w3.org/Graphics/SVG/1.1/DTD/svg11.dtd"><svg class="icon" width="200px" height="200.00px" viewBox="0 0 1024 1024" version="1.1" xmlns="http://www.w3.org/2000/svg"><path d="M464.628 880.513c-221.495 0-401.174-117.674-401.174-262.922 0-145.12 269.005-374.385 371.919-374.385 43.108 0 127.769 32.624 68.612 136.187-4.143 7.25 133.596-60.196 208.935-15.794 75.342 44.275 0 115.599 0 123.5s151.206 7.895 151.206 130.625c-0.14 145.114-178.003 262.788-399.499 262.788z" fill="#DA251C" /><path d="M779.845 343.010c-24.988-30.033-76.249-23.045-76.249-23.045-10.745 0.258-19.029-7.51-19.029-17.862v-7.377c0-10.361 8.285-20.063 18.512-21.62 0 0 61.104-15.535 107.838 27.187s26.665 120.783 26.665 120.783c-1.683 10.485-11.778 18.644-22.138 18.644h-16.961c-10.227 0-16.311-8.026-13.335-17.862 0.132-0.14 19.553-48.81-5.302-78.848z" fill="#ED7108" /><path d="M956.291 444.892c-1.683 15.535-16.179 27.963-31.714 27.963h-12.036c-15.663 0-26.406-12.428-24.080-27.831 0 0 22.265-94.112-29.257-169.068-51.393-74.956-172.176-62.138-172.176-62.138-15.921 0.258-28.482-11.652-28.482-27.187v-13.853c0-15.663 12.56-28.482 27.963-28.739 0 0 125.827-11.52 211.527 70.814 85.959 82.208 58.254 230.039 58.254 230.039z" fill="#ED7108" /><path d="M427.863 461.593c-141.497 19.937-245.575 111.723-232.497 205.19s138.513 153.014 280.009 133.21c141.62-19.937 245.701-111.716 232.497-205.185-13.076-93.475-138.519-153.154-280.009-133.217z" fill="#FFFFFF" /><path d="M449.218 774.49c-84.142 16.311-163.634-28.091-177.478-99.42-13.853-71.199 43.108-142.271 127.383-158.582 84.142-16.311 163.634 28.091 177.478 99.42 13.853 71.199-43.108 142.271-127.383 158.582z" fill="#231815" /><path d="M358.866 632.477c-25.889 12.036-39.483 37.933-30.29 57.604s37.673 25.889 63.563 13.853 39.483-37.933 30.29-57.604c-9.193-19.811-37.673-26.021-63.563-13.853zM451.679 591.311c-14.237 0-25.889 11.778-25.889 26.281s11.52 26.281 25.889 26.281c14.237 0 25.889-11.778 25.889-26.281s-11.646-26.281-25.889-26.281z" fill="#FFFFFF" /></svg>