<?xml version="1.0" standalone="no"?><!DOCTYPE svg PUBLIC "-//W3C//DTD SVG 1.1//EN" "http://www.w3.org/Graphics/SVG/1.1/DTD/svg11.dtd"><svg t="1499150854175" class="icon" style="" viewBox="0 0 1024 1024" version="1.1" xmlns="http://www.w3.org/2000/svg" p-id="4811" xmlns:xlink="http://www.w3.org/1999/xlink" width="200" height="200"><defs><style type="text/css"></style></defs><path d="M892.326912 218.064896c17.024 0 29.943808 2.248704 39.371776 6.700032 9.339904 4.473856 16.062464 9.842688 20.076544 16.54272 4.017152 6.700032 5.807104 13.39904 5.369856 21.016576-0.437248 7.595008-1.352704 13.857792-3.098624 19.20512l-11.655168 33.08544-19.20512 54.974464-21.475328 59.449344c-6.677504 19.663872-12.04736 35.311616-15.627264 46.485504-8.075264 23.678976-17.896448 40.22272-29.94176 49.606656-12.090368 9.38496-26.84416 13.857792-44.260352 13.857792l-30.860288 0-58.969088 0-76.864512 0L560.684032 538.988544 335.894528 538.988544l13.836288 80.44544 456.344576 0c29.070336 0 43.824128 12.068864 43.824128 36.665344 0 12.04736-3.142656 22.347776-8.99072 30.83776-5.325824 8.487936-16.93696 12.96384-33.958912 12.96384l-43.342848 0-84.023296 0L575.0016 699.900928 469.065728 699.900928l-86.728704 0-50.0224 0c-12.091392 0-22.347776-2.685952-30.42304-8.05376-8.031232-5.368832-14.753792-12.526592-20.1216-21.016576-5.80608-8.489984-9.821184-17.87392-13.400064-28.152832-3.098624-10.278912-5.805056-19.663872-7.595008-28.611584l-4.932608-25.905152-10.258432-51.418112-12.96384-68.834304-14.316544-76.428288L178.977792 190.349312l-67.961856 0c-8.90368 0-16.497664-2.226176-22.347776-6.700032-6.198272-4.473856-11.173888-9.821184-15.188992-16.084992-3.579904-6.262784-6.678528-12.96384-8.031232-20.122624-1.308672-7.136256-2.226176-13.857792-2.226176-19.662848 0-12.069888 4.016128-21.890048 12.091392-29.50656 8.467456-7.595008 19.20512-11.609088 33.041408-11.609088l20.1216 0 18.332672 0 22.347776 0 30.816256 0c12.090368 0 21.910528 1.788928 29.068288 5.367808 7.158784 3.579904 12.96384 8.031232 17.461248 13.400064 4.015104 5.367808 7.113728 11.173888 8.90368 16.978944l4.452352 15.21152c1.396736 4.91008 2.270208 11.609088 3.579904 20.099072l3.579904 26.386432 5.41184 33.957888L892.326912 218.064896zM739.90656 725.808128c11.610112 0 22.785024 2.246656 33.08544 6.263808 10.73664 4.015104 19.642368 9.84064 27.281408 17.436672 7.593984 7.595008 13.836288 16.084992 18.28864 26.36288 4.49536 10.279936 6.720512 21.016576 6.720512 32.191488s-2.226176 21.890048-6.720512 32.169984c-4.453376 10.277888-10.694656 18.767872-18.28864 26.384384-7.63904 7.596032-16.543744 13.401088-27.281408 17.874944-10.300416 4.473856-21.475328 6.700032-33.08544 6.700032-11.173888 0-22.347776-2.226176-32.606208-6.700032-10.257408-4.473856-19.249152-10.278912-26.406912-17.874944-7.596032-7.616512-13.838336-16.106496-18.28864-26.384384-4.496384-10.279936-6.72256-20.996096-6.72256-32.169984s2.2272-21.910528 6.72256-32.191488c4.451328-10.277888 10.692608-18.767872 18.28864-26.36288 7.15776-7.596032 16.149504-13.421568 26.406912-17.436672C717.558784 728.054784 728.732672 725.808128 739.90656 725.808128zM363.131904 724.0192c11.609088 0 22.347776 2.246656 32.648192 6.262784 10.258432 4.036608 19.20512 9.842688 27.236352 17.436672 7.595008 7.595008 13.88032 16.084992 17.896448 26.363904 4.451328 10.278912 6.721536 21.016576 6.721536 32.191488s-2.270208 21.889024-6.721536 32.16896c-4.016128 10.279936-10.302464 18.7904-17.896448 26.385408-8.031232 7.596032-16.978944 13.400064-27.236352 17.87392-10.300416 4.473856-21.039104 6.700032-32.648192 6.700032-12.048384 0-23.222272-2.226176-33.086464-6.700032-9.821184-4.473856-18.768896-10.277888-26.800128-17.87392-7.595008-7.595008-13.88032-16.105472-17.896448-26.385408-4.451328-10.279936-6.720512-20.995072-6.720512-32.16896s2.269184-21.911552 6.720512-32.191488c4.016128-10.278912 10.302464-18.768896 17.896448-26.363904 8.031232-7.593984 16.978944-13.400064 26.800128-17.436672C339.909632 726.265856 351.08352 724.0192 363.131904 724.0192z" p-id="4812" fill="#bfbfbf"></path></svg>